<svg width="30" height="30" viewBox="0 0 30 30" fill="none" xmlns="http://www.w3.org/2000/svg">
<circle cx="15" cy="15" r="15" fill="white"/>
<g clip-path="url(#clip0_1_6)">
<path d="M10.1449 20.0208C9.09791 18.8784 8.54991 18.0968 7.69265 16.5235C7.62019 16.3905 7.50885 16.1871 7.44524 16.0715L10.1449 20.0208ZM10.1449 20.0208C10.7122 20.6399 11.0406 20.9067 12.1029 21.6119L10.1449 20.0208ZM7.28936 7.79202L7.58173 8.19763C7.32167 8.38509 7.02582 8.69225 6.92729 8.85107L6.92727 8.85111C6.83385 9.00166 6.70861 9.27045 6.68042 9.36335C6.64718 9.47289 6.59891 9.71567 6.55774 9.98834C6.51652 10.2614 6.49123 10.5059 6.49088 10.6177L7.28936 7.79202ZM7.28936 7.79202L7.58173 8.19763C8.06127 7.85198 8.35417 7.65694 8.59951 7.52835C8.83168 7.40668 9.03077 7.3396 9.32943 7.26948L7.28936 7.79202ZM6.57819 11.7553L6.57819 11.7554C6.62434 12.0837 6.74779 12.6104 6.94903 13.3108L6.94903 13.3108C7.00455 13.5041 7.0677 13.7311 7.08893 13.815L7.08894 13.815C7.11841 13.9315 7.14966 14.026 7.36701 14.6164L7.36702 14.6164C7.49447 14.9626 7.59292 15.2096 7.72968 15.5265L7.7297 15.5266C7.75316 15.581 7.82331 15.7214 7.88328 15.8304L7.88331 15.8305C7.94728 15.9467 8.05895 16.1507 8.1317 16.2842L8.13171 16.2842C8.97251 17.8274 9.49779 18.5746 10.5135 19.683L10.5135 19.683C11.0432 20.261 11.3354 20.5023 12.3794 21.1953C12.4823 21.2636 12.59 21.3332 12.6799 21.3899C12.7249 21.4183 12.7644 21.4429 12.7961 21.4621C12.812 21.4717 12.8251 21.4796 12.8355 21.4857L12.8479 21.4928L12.8516 21.4948C12.8525 21.4953 12.8529 21.4956 12.8529 21.4955L12.8529 21.4956C12.9458 21.5452 13.1684 21.6452 13.4031 21.7431C13.517 21.7905 13.627 21.8347 13.7169 21.869C13.7619 21.8862 13.8 21.9001 13.8299 21.9105C13.863 21.922 13.8755 21.9253 13.8738 21.9249L13.8738 21.9249C14.0696 21.9738 14.3337 21.9989 14.7032 21.9884C14.8848 21.9832 14.9785 21.9754 15.0655 21.9591C15.1545 21.9425 15.2537 21.9139 15.4431 21.8494C15.4423 21.8496 15.4424 21.8496 15.4436 21.8491C15.4471 21.8477 15.4594 21.8428 15.4834 21.8321C15.5122 21.8193 15.5491 21.8021 15.5928 21.7811C15.6799 21.7391 15.787 21.6853 15.8976 21.6279C16.1257 21.5096 16.3427 21.3899 16.4319 21.3326L16.4319 21.3326C16.8101 21.0896 16.9489 20.9932 17.1203 20.8587L17.1203 20.8587C17.2352 20.7685 17.4232 20.6247 17.5407 20.5371L17.5408 20.5371C17.9518 20.2308 18.0775 20.1216 18.4343 19.7611C18.8643 19.3267 19.5407 18.6003 19.7532 18.3467C19.8755 18.2007 20.3688 17.56 20.4986 17.3782C20.5283 17.3367 20.6454 17.1765 20.7577 17.0236C20.8657 16.8765 21.0794 16.5714 21.2299 16.349L21.644 16.6291L21.2299 16.349C21.8474 15.4363 21.9471 15.2669 22.2177 14.6999C22.3145 14.497 22.4528 14.1916 22.5229 14.0263L22.5229 14.0263C22.5972 13.8512 22.7441 13.5094 22.8497 13.2657C23.1578 12.5554 23.2955 12.1673 23.3522 11.9C23.3644 11.8426 23.404 11.6028 23.4395 11.3627C23.4946 10.991 23.4982 10.9469 23.4996 10.457C23.501 9.98152 23.4842 9.70194 23.4398 9.48222C23.3982 9.27619 23.3281 9.10294 23.1882 8.85028C23.0342 8.57216 22.9232 8.42805 22.5588 8.07163C22.027 7.55161 21.795 7.41417 21.541 7.34239C21.45 7.31669 21.4328 7.31248 21.3716 7.30782C21.2815 7.30096 21.1361 7.29878 20.8012 7.29496C20.0762 7.2867 19.9675 7.31091 19.893 7.33987L19.7119 6.87409L19.893 7.33987C19.8237 7.3668 19.7214 7.40135 19.6534 7.42005L19.6533 7.42007C19.5788 7.44053 19.4155 7.5084 19.179 7.63027C18.953 7.74675 18.6882 7.89787 18.4216 8.06499L18.4216 8.06501C18.302 8.13999 18.0083 8.31736 17.7683 8.45981M6.57819 11.7553L17.7683 8.45981M6.57819 11.7553C6.5321 11.4275 6.4901 10.8692 6.49088 10.6177L6.57819 11.7553ZM17.7683 8.45981C16.9189 8.96398 16.4281 9.26175 16.1632 9.43292L16.1632 9.43293C15.8999 9.60306 15.7197 9.69752 15.4199 9.82352L15.4199 9.82352C15.0746 9.96866 14.8028 10.0429 14.4595 9.96374C14.2678 9.91954 14.0601 9.82616 13.8804 9.7256C13.6971 9.62304 13.5075 9.49321 13.3563 9.35361L13.6955 8.98622M17.7683 8.45981L13.6955 8.98622M13.6955 8.98622L13.3563 9.35361C13.2031 9.21214 13.0933 9.11819 12.93 8.98884L13.6955 8.98622ZM12.4955 8.59873L12.4955 8.59869C12.3926 8.49709 12.2215 8.35199 12.1313 8.2877L12.4955 8.59873ZM12.4955 8.59873C12.6231 8.72465 12.814 8.89694 12.93 8.98882L12.4955 8.59873ZM1.71365 25.8252C1.67022 25.8265 1.66665 25.8286 1.71336 25.831M1.71365 25.8252H1.71365C1.74357 25.8243 1.79241 25.8237 1.85677 25.8237C1.92112 25.8237 1.96996 25.8243 1.99988 25.8252C2.04331 25.8265 2.04688 25.8286 2.00017 25.831C1.96074 25.833 1.90875 25.834 1.85677 25.834C1.80478 25.834 1.7528 25.833 1.71336 25.831M1.71365 25.8252L1.71336 25.831M1.71365 25.8252L1.71336 25.831" fill="#EA3D2F" stroke="#EA3D2F"/>
</g>
<defs>
<clipPath id="clip0_1_6">
<rect width="18" height="17" fill="white" transform="translate(6 6)"/>
</clipPath>
</defs>
</svg>
