<svg width="35" height="32" viewBox="0 0 35 32" fill="none" xmlns="http://www.w3.org/2000/svg">
<ellipse cx="17.6516" cy="16" rx="16.9807" ry="16" fill="#FFF7DE"/>
<g clip-path="url(#clip0_1_8)">
<path d="M15.994 11.0117C15.5587 11.0625 15.2809 11.1231 14.9555 11.2344C13.8693 11.6074 12.9904 12.4356 12.5945 13.459C12.4992 13.7051 12.4432 13.9043 12.3934 14.1836C12.3437 14.4668 12.3437 15.0332 12.3934 15.3164C12.5427 16.1465 12.9075 16.8242 13.5169 17.3965C14.1243 17.9707 14.8435 18.3145 15.7245 18.4551C16.0251 18.502 16.6262 18.502 16.9267 18.4551C17.8077 18.3145 18.527 17.9707 19.1343 17.3965C19.7437 16.8242 20.1085 16.1465 20.2578 15.3164C20.3075 15.0332 20.3075 14.4668 20.2578 14.1836C20.1085 13.3535 19.7437 12.6758 19.1343 12.1035C18.5311 11.5352 17.8056 11.1856 16.9475 11.0488C16.7568 11.0195 16.1411 10.9942 15.994 11.0117ZM16.906 11.9961C18.0958 12.2246 18.9934 13.0703 19.2504 14.2031C19.2877 14.3711 19.296 14.4707 19.296 14.75C19.296 15.0293 19.2877 15.1289 19.2504 15.2969C18.9934 16.4317 18.1103 17.2637 16.906 17.5059C16.5951 17.5684 16.0561 17.5684 15.7452 17.5059C14.5409 17.2637 13.6579 16.4317 13.4008 15.2969C13.3635 15.1289 13.3552 15.0293 13.3552 14.75C13.3552 14.3789 13.3905 14.1524 13.5003 13.8516C13.8734 12.8262 14.8311 12.0938 15.9774 11.957C16.2116 11.9297 16.6573 11.9492 16.906 11.9961Z" fill="#505050"/>
<path d="M16.0769 12.5763C16.0479 12.5802 15.9505 12.5977 15.8593 12.6134C15.0571 12.7599 14.3689 13.3399 14.1202 14.0821C14.0621 14.254 14.0041 14.5548 14.0041 14.6759V14.7501H14.3337H14.6612L14.6757 14.6153C14.7441 13.922 15.283 13.3614 16.0189 13.2188C16.1059 13.2013 16.2116 13.1876 16.2531 13.1876H16.3256V12.8751V12.5626L16.2282 12.5645C16.1723 12.5665 16.1059 12.5724 16.0769 12.5763Z" fill="#505050"/>
<path d="M20.092 17.293C19.8059 17.6739 19.4266 18.0293 19.0245 18.2989L18.8296 18.4278L20.1127 19.6348C21.2922 20.7461 21.4041 20.8458 21.5285 20.9004C21.9244 21.0743 22.3576 21.004 22.6602 20.7188C22.9629 20.4336 23.0375 20.0254 22.853 19.6524C22.795 19.5352 22.6892 19.4297 21.5098 18.3184L20.2288 17.1094L20.092 17.293Z" fill="#505050"/>
</g>
<defs>
<clipPath id="clip0_1_8">
<rect width="10.6129" height="10" fill="white" transform="translate(12.3457 11)"/>
</clipPath>
</defs>
</svg>
